<svg width="34" height="48" xmlns="http://www.w3.org/2000/svg" viewBox="0 0 53 73.5"><path fill="#F9C720" d="M1.3 37.7l22.3-.5L16.5 15S2.3 21.6 1.3 37.7z"/><circle fill="none" stroke="#1D1D1B" stroke-width="2" stroke-miterlimit="10" cx="24.8" cy="37" r="23.6"/><circle fill="none" stroke="#1D1D1B" stroke-width="2" stroke-miterlimit="10" cx="24.8" cy="37" r="14"/><path fill="none" stroke="#1D1D1B" stroke-width="2" stroke-miterlimit="10" d="M38.8 18V8.1h-2.9M10.8 18V8.1h2.8m-2.8 47.5v9.9h2.8m25.2-9.9v9.9c-.6-.1-3 0-3 0"/><path fill="#1D1D1B" d="M51 42.6h-.9c-.9 0-1.7-.8-1.7-1.7v-9.2c0-.9.8-1.7 1.7-1.7h.9c.9 0 1.7.8 1.7 1.7v9.2c0 1-.8 1.7-1.7 1.7z"/><path fill="none" stroke="#1D1D1B" stroke-width="2" stroke-miterlimit="10" d="M13.6 62.9h22.3v9.4H13.6zm0-61.6h22.3v9.4H13.6z"/><path fill="#1D1D1B" d="M18 19.2c0 .6 3.4 14.1 4.8 19.5.3 1.2 1.6 1.9 2.8 1.5 1.2-.4 1.7-1.8 1.2-2.9L18 19.2z"/><path fill="#1D1D1B" d="M8.9 37.5c.5.3 11.6 2.1 16.1 2.8 1 .2 1.9-.8 2-2 0-1.3-.8-2.3-1.8-2.2L8.9 37.5z"/><path d="M24.7 16.5v3.3m.1 34.6v3.3m20.6-20.6h-3.3m-34.5.1H4.3" fill="none" stroke="#1D1D1B" stroke-width="2" stroke-miterlimit="10"/></svg>