<svg xmlns="http://www.w3.org/2000/svg" xmlns:xlink="http://www.w3.org/1999/xlink" viewBox="0 0 33.3 33.3"><defs><path id="a" d="M19.8 9.3l-2.3 2.3a3.32 3.32 0 0 0 0 4.7c1.3 1.3 3.4 1.3 4.7 0l2.3-2.3c1.3-1.3 1.3-3.4 0-4.7-.7-.7-1.5-1-2.4-1-.8.1-1.7.4-2.3 1"/></defs><clipPath id="b"><use xlink:href="#a" overflow="visible"/></clipPath><path clip-path="url(#b)" fill="none" stroke="#7E9498" stroke-width="4" stroke-linecap="round" stroke-linejoin="round" stroke-miterlimit="10" d="M19.8 9.3c1.3-1.3 3.4-1.3 4.7 0 1.3 1.3 1.3 3.4 0 4.7l-2.3 2.3a3.32 3.32 0 0 1-4.7 0 3.32 3.32 0 0 1 0-4.7l2.3-2.3z"/><defs><path id="c" d="M12 17.1l-2.3 2.3a3.32 3.32 0 0 0 0 4.7c1.3 1.3 3.4 1.3 4.7 0l2.3-2.3c1.3-1.3 1.3-3.4 0-4.7-.7-.7-1.5-1-2.4-1-.8 0-1.6.3-2.3 1"/></defs><clipPath id="d"><use xlink:href="#c" overflow="visible"/></clipPath><path clip-path="url(#d)" fill="none" stroke="#7E9498" stroke-width="4" stroke-linecap="round" stroke-linejoin="round" stroke-miterlimit="10" d="M12 17.1c1.3-1.3 3.4-1.3 4.7 0 1.3 1.3 1.3 3.4 0 4.7l-2.3 2.3a3.32 3.32 0 0 1-4.7 0 3.32 3.32 0 0 1 0-4.7l2.3-2.3z"/><path fill="none" stroke="#7E9498" stroke-width="2" stroke-linecap="round" stroke-linejoin="round" stroke-miterlimit="10" d="M19.5 14.7L15 19.1"/><defs><path id="e" d="M.8.6h31.9v32H.8z"/></defs><clipPath id="f"><use xlink:href="#e" overflow="visible"/></clipPath><ellipse clip-path="url(#f)" fill="none" stroke="#7E9498" stroke-width="2" stroke-miterlimit="10" cx="16.7" cy="16.6" rx="15" ry="15"/></svg>