<svg width="33" height="33" xmlns="http://www.w3.org/2000/svg" xmlns:xlink="http://www.w3.org/1999/xlink" viewBox="0 0 32.4 32.4"><defs><path id="a" d="M19.3 8.9L17 11.1a3.32 3.32 0 0 0 0 4.7c1.3 1.3 3.4 1.3 4.7 0l2.3-2.3c1.3-1.3 1.3-3.4 0-4.7-.7-.7-1.5-1-2.4-1-.8.1-1.7.4-2.3 1.1"/></defs><clipPath id="b"><use xlink:href="#a" overflow="visible"/></clipPath><path clip-path="url(#b)" fill="none" stroke="#7E9498" stroke-width="4" stroke-linecap="round" stroke-linejoin="round" stroke-miterlimit="10" d="M19.3 8.9c1.3-1.3 3.4-1.3 4.7 0 1.3 1.3 1.3 3.4 0 4.7l-2.3 2.3a3.32 3.32 0 0 1-4.7 0 3.32 3.32 0 0 1 0-4.7l2.3-2.3z"/><defs><path id="c" d="M11.5 16.6l-2.3 2.3a3.32 3.32 0 0 0 0 4.7c1.3 1.3 3.4 1.3 4.7 0l2.3-2.3c1.3-1.3 1.3-3.4 0-4.7-.7-.7-1.5-1-2.4-1-.8 0-1.6.4-2.3 1"/></defs><clipPath id="d"><use xlink:href="#c" overflow="visible"/></clipPath><path clip-path="url(#d)" fill="none" stroke="#7E9498" stroke-width="4" stroke-linecap="round" stroke-linejoin="round" stroke-miterlimit="10" d="M11.5 16.6c1.3-1.3 3.4-1.3 4.7 0 1.3 1.3 1.3 3.4 0 4.7L14 23.6a3.32 3.32 0 0 1-4.7 0 3.32 3.32 0 0 1 0-4.7l2.2-2.3z"/><path fill="none" stroke="#7E9498" stroke-width="2" stroke-linecap="round" stroke-linejoin="round" stroke-miterlimit="10" d="M19 14.2l-4.5 4.5"/><defs><path id="e" d="M.3.2h31.9v32H.3z"/></defs><clipPath id="f"><use xlink:href="#e" overflow="visible"/></clipPath><ellipse clip-path="url(#f)" fill="none" stroke="#7E9498" stroke-width="2" stroke-miterlimit="10" cx="16.2" cy="16.2" rx="15" ry="15"/></svg>