<svg width="33" height="33" xmlns="http://www.w3.org/2000/svg" xmlns:xlink="http://www.w3.org/1999/xlink" viewBox="0 0 31.9 32"><defs><path id="a" d="M19 8.7L16.8 11a3.32 3.32 0 0 0 0 4.7c1.3 1.3 3.4 1.3 4.7 0l2.3-2.3c1.3-1.3 1.3-3.4 0-4.7-.7-.7-1.5-1-2.4-1-.9 0-1.7.4-2.4 1"/></defs><clipPath id="b"><use xlink:href="#a" overflow="visible"/></clipPath><path clip-path="url(#b)" fill="none" stroke="#EBBA16" stroke-width="4" stroke-linecap="round" stroke-linejoin="round" stroke-miterlimit="10" d="M19 8.7c1.3-1.3 3.4-1.3 4.7 0 1.3 1.3 1.3 3.4 0 4.7l-2.3 2.3a3.32 3.32 0 0 1-4.7 0 3.32 3.32 0 0 1 0-4.7L19 8.7z"/><defs><path id="c" d="M11.3 16.5L9 18.7a3.32 3.32 0 0 0 0 4.7c1.3 1.3 3.4 1.3 4.7 0l2.3-2.3c1.3-1.3 1.3-3.4 0-4.7-.7-.7-1.5-1-2.4-1-.8.1-1.7.4-2.3 1.1"/></defs><clipPath id="d"><use xlink:href="#c" overflow="visible"/></clipPath><path clip-path="url(#d)" fill="none" stroke="#EBBA16" stroke-width="4" stroke-linecap="round" stroke-linejoin="round" stroke-miterlimit="10" d="M11.3 16.5c1.3-1.3 3.4-1.3 4.7 0 1.3 1.3 1.3 3.4 0 4.7l-2.3 2.3a3.32 3.32 0 0 1-4.7 0 3.32 3.32 0 0 1 0-4.7l2.3-2.3z"/><path fill="none" stroke="#EBBA16" stroke-width="2" stroke-linecap="round" stroke-linejoin="round" stroke-miterlimit="10" d="M18.7 14l-4.5 4.5"/><defs><path id="e" d="M0 0h31.9v32H0z"/></defs><clipPath id="f"><use xlink:href="#e" overflow="visible"/></clipPath><ellipse clip-path="url(#f)" fill="none" stroke="#EBBA16" stroke-width="2" stroke-miterlimit="10" cx="16" cy="16" rx="15" ry="15"/></svg>