<svg width="38" height="44" xmlns="http://www.w3.org/2000/svg" viewBox="0 0 59 67.8"><circle fill="#F9C720" cx="39.2" cy="48.1" r="18.3"/><g fill="none" stroke="#1D1D1B" stroke-width="2" stroke-miterlimit="10"><path d="M19.5 59.8h-18V1.4h49.3v27"/><path d="M18.5 15.7v3.6H8.3V9.1h10.2"/><path d="M11.9 13.7l1.8 2.2 7.1-5.1m-2.3 22v3.6H8.3V26.1h10.2"/><path d="M11.9 30.7l1.8 2.3 7.1-5.1m15.1 29.3V40.1h5.8c2.1 0 3.8 1.7 3.8 3.8 0 2.1-1.7 3.8-3.8 3.8H32m.1 3.9h13.5"/><path d="M20.9 48.2c0 10.2 8.2 18.4 18.4 18.4s18.4-8.2 18.4-18.4-8.2-18.4-18.4-18.4c-3.9 0-7.5 1.2-10.5 3.3"/><path d="M29.3 27.5c-.1.6-.8 6-.8 6L34 35m-8.2-23h18.4m-18.4 5.1h18.4"/></g></svg>