<svg width="45" height="43" xmlns="http://www.w3.org/2000/svg" viewBox="0 0 68.3 63.5"><path fill="#F9C720" d="M28.9 14.9h25.2v7.5h-1.9v11.5H30.9V23.3l-2-.9v-7.5z"/><g fill="none" stroke="#1D1D1B" stroke-width="2" stroke-miterlimit="10"><path d="M1.5 63.5v-7.6h27.4v7.6M4.4 54.1V33l9.4-8.1"/><path d="M9.1 39.5l12.6-12.2s6.7 2.7 3.8 7-4.9 6.3-4.9 6.3 1.1 5.2-.9 7.4-4.5 3.1-4.5 3.1"/><path d="M24.2 41.5h40c1.7 0 3-1.4 3-3V4.4c0-1.7-1.4-3-3-3h-46c-1.7 0-3 1.4-3 3v26.4m7.6 25s6.1-3.2 6.1-8.2v-5.3"/><path d="M38.3 22.4h-9.4v-7.5h25.2v7.5h-8.6"/><path stroke-linecap="round" stroke-linejoin="round" d="M36.3 14.2s-5.9-4.7-1.7-6.9 6.9 6.4 6.9 6.4 4.6-9.2 8.1-6.2c3.5 3-2 6.8-2 6.8"/><path d="M52.2 22.4v11.5H30.9V23.3m7.4-8.4v19m6.3-18.5v19"/></g></svg>