<svg width="40" height="31" xmlns="http://www.w3.org/2000/svg" xmlns:xlink="http://www.w3.org/1999/xlink" viewBox="0 0 75 58"><defs><path id="a" d="M0 0h32.2v33.4H0z"/></defs><clipPath id="b"><use xlink:href="#a" overflow="visible"/></clipPath><g clip-path="url(#b)"><defs><path id="c" d="M-682-4860H758v6796H-682z"/></defs><clipPath id="d"><use xlink:href="#c" overflow="visible"/></clipPath><path clip-path="url(#d)" fill="#F9C720" stroke="#F9C720" stroke-miterlimit="10" d="M-5-5h42.2v43.4H-5z"/><use xlink:href="#c" overflow="visible" fill="none" stroke="#F9C720" stroke-miterlimit="10"/></g><use xlink:href="#a" overflow="visible" fill-rule="evenodd" clip-rule="evenodd" fill="none" stroke="#F9C720" stroke-miterlimit="10"/><defs><path id="e" d="M31.7 34.2L12.8 58h-2l13.1-23.8z"/></defs><clipPath id="f"><use xlink:href="#e" overflow="visible"/></clipPath><g clip-path="url(#f)"><defs><path id="g" d="M-682.6-4859.2h1440v6796h-1440z"/></defs><clipPath id="h"><use xlink:href="#g" overflow="visible"/></clipPath><path clip-path="url(#h)" fill="#F9C720" stroke="#F9C720" stroke-miterlimit="10" d="M5.8 29.2h30.9v33.7H5.8z"/><use xlink:href="#g" overflow="visible" fill="none" stroke="#F9C720" stroke-miterlimit="10"/></g><use xlink:href="#e" overflow="visible" fill-rule="evenodd" clip-rule="evenodd" fill="none" stroke="#F9C720" stroke-miterlimit="10"/><defs><path id="i" d="M42.2 0h32.2v33.4H42.2z"/></defs><clipPath id="j"><use xlink:href="#i" overflow="visible"/></clipPath><g clip-path="url(#j)"><defs><path id="k" d="M-682-4860H758v6796H-682z"/></defs><clipPath id="l"><use xlink:href="#k" overflow="visible"/></clipPath><path clip-path="url(#l)" fill="#F9C720" stroke="#F9C720" stroke-miterlimit="10" d="M37.2-5h42.2v43.4H37.2z"/><use xlink:href="#k" overflow="visible" fill="none" stroke="#F9C720" stroke-miterlimit="10"/></g><use xlink:href="#i" overflow="visible" fill-rule="evenodd" clip-rule="evenodd" fill="none" stroke="#F9C720" stroke-miterlimit="10"/><defs><path id="m" d="M73.9 34.3L55 58.1h-2l13.1-23.8z"/></defs><clipPath id="n"><use xlink:href="#m" overflow="visible"/></clipPath><g clip-path="url(#n)"><defs><path id="o" d="M-682.6-4859h1440v6796h-1440z"/></defs><clipPath id="p"><use xlink:href="#o" overflow="visible"/></clipPath><path clip-path="url(#p)" fill="#F9C720" stroke="#F9C720" stroke-miterlimit="10" d="M48 29.3h30.9V63H48z"/><use xlink:href="#o" overflow="visible" fill="none" stroke="#F9C720" stroke-miterlimit="10"/></g><use xlink:href="#m" overflow="visible" fill-rule="evenodd" clip-rule="evenodd" fill="none" stroke="#F9C720" stroke-miterlimit="10"/></svg>