<?xml version="1.0" encoding="utf-8"?>
<!-- Generator: Adobe Illustrator 17.1.0, SVG Export Plug-In . SVG Version: 6.00 Build 0)  -->
<!DOCTYPE svg PUBLIC "-//W3C//DTD SVG 1.1//EN" "http://www.w3.org/Graphics/SVG/1.1/DTD/svg11.dtd">
<svg version="1.1" id="Layer_1" xmlns="http://www.w3.org/2000/svg" xmlns:xlink="http://www.w3.org/1999/xlink" x="0px" y="0px"
	 viewBox="0 0 31.9 32" enable-background="new 0 0 31.9 32" xml:space="preserve">
<g>
	<defs>
		<path id="SVGID_1_" d="M19,8.7L16.8,11c-1.3,1.3-1.3,3.4,0,4.7c1.3,1.3,3.4,1.3,4.7,0l2.3-2.3c1.3-1.3,1.3-3.4,0-4.7
			c-0.7-0.7-1.5-1-2.4-1C20.5,7.7,19.7,8.1,19,8.7"/>
	</defs>
	<clipPath id="SVGID_2_">
		<use xlink:href="#SVGID_1_"  overflow="visible"/>
	</clipPath>
	
		<path clip-path="url(#SVGID_2_)" fill="none" stroke="#EBBA16" stroke-width="4" stroke-linecap="round" stroke-linejoin="round" stroke-miterlimit="10" d="
		M19,8.7c1.3-1.3,3.4-1.3,4.7,0c1.3,1.3,1.3,3.4,0,4.7l-2.3,2.3c-1.3,1.3-3.4,1.3-4.7,0c-1.3-1.3-1.3-3.4,0-4.7L19,8.7z"/>
</g>
<g>
	<defs>
		<path id="SVGID_3_" d="M11.3,16.5L9,18.7c-1.3,1.3-1.3,3.4,0,4.7c1.3,1.3,3.4,1.3,4.7,0l2.3-2.3c1.3-1.3,1.3-3.4,0-4.7
			c-0.7-0.7-1.5-1-2.4-1C12.8,15.5,11.9,15.8,11.3,16.5"/>
	</defs>
	<clipPath id="SVGID_4_">
		<use xlink:href="#SVGID_3_"  overflow="visible"/>
	</clipPath>
	
		<path clip-path="url(#SVGID_4_)" fill="none" stroke="#EBBA16" stroke-width="4" stroke-linecap="round" stroke-linejoin="round" stroke-miterlimit="10" d="
		M11.3,16.5c1.3-1.3,3.4-1.3,4.7,0c1.3,1.3,1.3,3.4,0,4.7l-2.3,2.3c-1.3,1.3-3.4,1.3-4.7,0c-1.3-1.3-1.3-3.4,0-4.7L11.3,16.5z"/>
</g>
<line fill="none" stroke="#EBBA16" stroke-width="2" stroke-linecap="round" stroke-linejoin="round" stroke-miterlimit="10" x1="18.7" y1="14" x2="14.2" y2="18.5"/>
<g>
	<defs>
		<rect id="SVGID_5_" width="31.9" height="32"/>
	</defs>
	<clipPath id="SVGID_6_">
		<use xlink:href="#SVGID_5_"  overflow="visible"/>
	</clipPath>
	
		<ellipse clip-path="url(#SVGID_6_)" fill="none" stroke="#EBBA16" stroke-width="2" stroke-miterlimit="10" cx="16" cy="16" rx="15" ry="15"/>
</g>
</svg>
